HIERARCHY
ROOT Hip
{
	OFFSET	0.00  0.00  0.00 
	CHANNELS 6 Xposition Yposition Zposition Xrotation Zrotation Yrotation
	JOINT Abdomen
	{
		OFFSET	0.039181 5.637571 0.560720
		CHANNELS 3 Xrotation Zrotation Yrotation
		JOINT Chest
		{
			OFFSET	-0.136063 7.190207 -0.124363
			CHANNELS 3 Xrotation Zrotation Yrotation
			JOINT Neck
			{
				OFFSET	0.193764 10.560151 -1.259468
				CHANNELS 3 Xrotation Zrotation Yrotation
				JOINT Head
				{
					OFFSET	-0.096882 0.362727 0.622109
					CHANNELS 3 Xrotation Zrotation Yrotation
					JOINT LeftEye
					{
						OFFSET	1.356350 5.062673 4.221998
						CHANNELS 3 Zrotation Yrotation Xrotation
						End Site
						{
							OFFSET 0.000000 0.000000 0.871939
						}
					}
					JOINT RightEye
					{
						OFFSET	-1.356350 5.062673 4.221998
						CHANNELS 3 Zrotation Yrotation Xrotation
						End Site
						{
							OFFSET 0.000000 0.000000 0.871939
						}
					}
				}
			}
			JOINT RightCollar
			{
				OFFSET	-3.778404 4.940989 0.193764
				CHANNELS 3 Yrotation Zrotation Xrotation
				JOINT RightShoulder
				{
					OFFSET	-2.615818 1.356350 -0.484411
					CHANNELS 3 Zrotation Yrotation Xrotation
					JOINT RightForearm
					{
						OFFSET	-11.432094 0.484410 -1.937643
						CHANNELS 3 Yrotation Zrotation Xrotation
						JOINT RightHand
						{
							OFFSET	-10.657035 -0.096881 0.581293
							CHANNELS 3 Zrotation Yrotation Xrotation
							JOINT RightThumb1
							{
								OFFSET	-0.678175 -0.581297 0.968821
								CHANNELS 3 Zrotation Yrotation Xrotation
								JOINT RightThumb2
								{
									OFFSET	-0.968823 -0.484410 0.484411
									CHANNELS 3 Zrotation Yrotation Xrotation
									JOINT RightThumb3
									{
										OFFSET	-0.929680 -0.497680 0.055639
										CHANNELS 3 Zrotation Yrotation Xrotation
										End Site
										{
											OFFSET -1.097190 -0.513867 -0.001182
										}
									}
								}
							}
							JOINT RightIndex1
							{
								OFFSET	-3.003348 0.581291 1.259468
								CHANNELS 3 Zrotation Yrotation Xrotation
								JOINT RightIndex2
								{
									OFFSET	-1.468153 -0.266718 0.069755
									CHANNELS 3 Zrotation Yrotation Xrotation
									JOINT RightIndex3
									{
										OFFSET	-0.944212 -0.382684 -0.083028
										CHANNELS 3 Zrotation Yrotation Xrotation
										End Site
										{
											OFFSET -0.675657 -0.558718 0.000000
										}
									}
								}
							}
							JOINT RightMid1
							{
								OFFSET	-3.197113 0.581291 0.290646
								CHANNELS 3 Zrotation Yrotation Xrotation
								JOINT RightMid2
								{
									OFFSET	-1.550115 -0.387529 0.000000
									CHANNELS 3 Zrotation Yrotation Xrotation
									JOINT RightMid3
									{
										OFFSET	-0.731071 -0.803926 0.018214
										CHANNELS 3 Zrotation Yrotation Xrotation
										End Site
										{
											OFFSET -0.366992 -0.937043 0.083406
										}
									}
								}
							}
							JOINT RightRing1
							{
								OFFSET	-3.197113 0.387529 -0.678175
								CHANNELS 3 Zrotation Yrotation Xrotation
								JOINT RightRing2
								{
									OFFSET	-1.259466 -0.484410 0.096882
									CHANNELS 3 Zrotation Yrotation Xrotation
									JOINT RightRing3
									{
										OFFSET	-0.551552 -0.801218 0.111221
										CHANNELS 3 Zrotation Yrotation Xrotation
										End Site
										{
											OFFSET -0.245208 -0.810324 0.000000
										}
									}
								}
							}
							JOINT RightPinky1
							{
								OFFSET	-2.809584 -0.096881 -1.453232
								CHANNELS 3 Zrotation Yrotation Xrotation
								JOINT RightPinky2
								{
									OFFSET	-0.984323 -0.316034 0.039140
									CHANNELS 3 Zrotation Yrotation Xrotation
									JOINT RightPinky3
									{
										OFFSET	-0.468908 -0.555906 0.057742
										CHANNELS 3 Zrotation Yrotation Xrotation
										End Site
										{
											OFFSET -0.479664 -0.640198 0.044081
										}
									}
								}
							}
						}
					}
				}
			}
			JOINT LeftCollar
			{
				OFFSET	3.972168 4.940989 0.193764
				CHANNELS 3 Yrotation Zrotation Xrotation
				JOINT LeftShoulder
				{
					OFFSET	2.615818 1.356350 -0.484411
					CHANNELS 3 Zrotation Yrotation Xrotation
					JOINT LeftForearm
					{
						OFFSET	11.432094 0.484410 -1.937643
						CHANNELS 3 Yrotation Zrotation Xrotation
						JOINT LeftHand
						{
							OFFSET	10.657035 -0.096881 0.581293
							CHANNELS 3 Zrotation Yrotation Xrotation
							JOINT LeftThumb1
							{
								OFFSET	0.678175 -0.581297 0.968821
								CHANNELS 3 Zrotation Yrotation Xrotation
								JOINT LeftThumb2
								{
									OFFSET	0.968823 -0.484410 0.484411
									CHANNELS 3 Zrotation Yrotation Xrotation
									JOINT LeftThumb3
									{
										OFFSET	0.929680 -0.497680 0.055639
										CHANNELS 3 Zrotation Yrotation Xrotation
										End Site
										{
											OFFSET 1.097190 -0.513867 -0.001182
										}
									}
								}
							}
							JOINT LeftIndex1
							{
								OFFSET	3.003348 0.581291 1.259468
								CHANNELS 3 Zrotation Yrotation Xrotation
								JOINT LeftIndex2
								{
									OFFSET	1.468153 -0.266718 0.069755
									CHANNELS 3 Zrotation Yrotation Xrotation
									JOINT LeftIndex3
									{
										OFFSET	0.944212 -0.382684 -0.083028
										CHANNELS 3 Zrotation Yrotation Xrotation
										End Site
										{
											OFFSET 0.675657 -0.558718 0.000000
										}
									}
								}
							}
							JOINT LeftMid1
							{
								OFFSET	3.197113 0.581291 0.290646
								CHANNELS 3 Zrotation Yrotation Xrotation
								JOINT LeftMid2
								{
									OFFSET	1.550115 -0.387529 0.000000
									CHANNELS 3 Zrotation Yrotation Xrotation
									JOINT LeftMid3
									{
										OFFSET	0.731071 -0.803926 0.018214
										CHANNELS 3 Zrotation Yrotation Xrotation
										End Site
										{
											OFFSET 0.366992 -0.937043 0.083406
										}
									}
								}
							}
							JOINT LeftRing1
							{
								OFFSET	3.197113 0.387529 -0.678175
								CHANNELS 3 Zrotation Yrotation Xrotation
								JOINT LeftRing2
								{
									OFFSET	1.259466 -0.484410 0.096882
									CHANNELS 3 Zrotation Yrotation Xrotation
									JOINT LeftRing3
									{
										OFFSET	0.551552 -0.801218 0.111221
										CHANNELS 3 Zrotation Yrotation Xrotation
										End Site
										{
											OFFSET 0.245208 -0.810324 0.000000
										}
									}
								}
							}
							JOINT LeftPinky1
							{
								OFFSET	2.809584 -0.096881 -1.453232
								CHANNELS 3 Zrotation Yrotation Xrotation
								JOINT LeftPinky2
								{
									OFFSET	0.984323 -0.316034 0.039140
									CHANNELS 3 Zrotation Yrotation Xrotation
									JOINT LeftPinky3
									{
										OFFSET	0.468908 -0.555906 0.057742
										CHANNELS 3 Zrotation Yrotation Xrotation
										End Site
										{
											OFFSET 0.479664 -0.640198 0.044081
										}
									}
								}
							}
						}
					}
				}
			}
		}
	}
	JOINT RightThigh
	{
		OFFSET	-3.875286 0.717509 0.339475
		CHANNELS 3 Xrotation Zrotation Yrotation
		JOINT RightShin
		{
			OFFSET	-0.434323 -20.673391 0.003424
			CHANNELS 3 Xrotation Zrotation Yrotation
			JOINT RightFoot
			{
				OFFSET	-0.063555 -15.653578 -0.075717
				CHANNELS 3 Xrotation Yrotation Zrotation
				JOINT RightToe
				{
					OFFSET	-0.513669 -2.790361 5.061637
					CHANNELS 3 Xrotation Yrotation Zrotation
					End Site
					{
						OFFSET 0.000000 -0.280183 2.993164
					}
				}
			}
		}
	}
	JOINT LeftThigh
	{
		OFFSET	3.875286 0.717509 0.339475
		CHANNELS 3 Xrotation Zrotation Yrotation
		JOINT LeftShin
		{
			OFFSET	0.434323 -20.673391 0.003424
			CHANNELS 3 Xrotation Zrotation Yrotation
			JOINT LeftFoot
			{
				OFFSET	0.063555 -15.653578 -0.075717
				CHANNELS 3 Xrotation Yrotation Zrotation
				JOINT LeftToe
				{
					OFFSET	0.513669 -2.874842 4.946725
					CHANNELS 3 Xrotation Yrotation Zrotation
					End Site
					{
						OFFSET 0.000000 -0.195702 3.108076
					}
				}
			}
		}
	}
}
MOTION
Frames:     4
Frame Time: 0.033333
-46.139057 40.270733 50.644077 -2.988340 0.351084 -25.682400 4.747900 -1.576610 -10.155200 9.913230 6.754080 -0.216265 0.000000 0.000000 0.000000 -28.416401 -4.950870 9.694730 0.000000 0.000000 0.000000 0.000000 0.000000 0.000000 -6.330040 -23.657700 -0.251097 87.521011 4.925431 2.055305 62.575272 -0.131905 -0.542132 -9.337228 -9.349080 -2.049732 -2.196803 8.088476 9.363434 -15.836849 8.200828 -17.027071 -4.667157 11.532217 -17.436045 0.000000 0.000000 0.000000 9.192525 9.822696 -5.878980 -14.800317 3.416048 -6.315852 -0.175781 0.000000 0.000000 8.244953 -1.502700 0.722675 -12.838020 -2.429856 5.230082 -0.175781 0.000000 0.000000 -0.156757 -5.465929 4.370303 -17.719269 -3.972915 -0.926374 -0.175781 0.000000 0.000000 7.752715 -4.393883 3.036627 4.441531 -3.901016 1.855662 2.207940 17.285700 1.255610 -84.955627 -33.582520 34.561062 -62.750156 -0.554961 -0.911303 10.862078 7.824615 2.156211 1.301079 -8.886789 9.164861 -30.905001 -8.414250 -17.094839 27.988997 -12.283599 -17.862673 0.000000 0.000000 0.000000 -21.136637 -10.005515 -5.939188 26.936884 -3.570157 -6.428788 -0.175781 0.000000 0.000000 -0.351563 0.000000 0.000000 3.108605 2.209314 1.967557 -0.175781 0.000000 0.000000 -0.736324 5.381598 4.224761 16.871576 3.912536 -1.093365 -0.175781 0.000000 0.000000 -8.641175 4.276957 2.914167 -5.330077 3.798435 1.717381 -23.190027 -13.162736 -29.147474 20.566236 0.000445 -0.084257 -4.884728 -13.600004 6.251308 -0.000457 0.016384 -0.175016 15.262681 6.533845 7.871413 16.346010 -0.163109 0.219767 -3.247128 6.936934 -6.131454 0.000000 0.000000 0.000000 
-48.183559 39.584766 52.402294 -3.339910 0.350965 -25.508801 4.394860 -0.701061 -9.899760 11.333000 6.895490 -0.192507 0.000000 0.000000 0.000000 -32.603100 -6.824910 9.785870 0.000000 0.000000 0.000000 0.000000 0.000000 0.000000 -5.370310 -23.688801 0.522449 85.507889 5.989765 2.879102 62.223713 -0.134741 -0.537052 -10.798318 -9.062495 -1.613987 -2.196803 8.088476 9.363434 -15.836849 8.200828 -17.027071 -4.667157 11.532217 -17.436045 0.000000 0.000000 0.000000 9.192525 9.822696 -5.878980 -14.800317 3.416048 -6.315852 -0.175781 0.000000 0.000000 8.244953 -1.502700 0.722675 -12.838020 -2.429856 5.230082 -0.175781 0.000000 0.000000 -0.156757 -5.465929 4.370303 -17.719269 -3.972915 -0.926374 -0.175781 0.000000 0.000000 7.752715 -4.393883 3.036627 4.441531 -3.901016 1.855662 1.289910 17.626801 2.035610 -85.522575 -33.407555 32.041969 -63.629086 -0.552881 -0.925988 11.151902 6.738981 1.021854 1.301079 -8.886789 9.164861 -30.905001 -8.414250 -17.094839 27.988997 -12.283599 -17.862673 0.000000 0.000000 0.000000 -21.136637 -10.005515 -5.939188 26.936884 -3.570157 -6.428788 -0.175781 0.000000 0.000000 -0.351563 0.000000 0.000000 3.108605 2.209314 1.967557 -0.175781 0.000000 0.000000 -0.736324 5.381598 4.224761 16.871576 3.912536 -1.093365 -0.175781 0.000000 0.000000 -8.641175 4.276957 2.914167 -5.330077 3.798435 1.717381 -23.518982 -14.356373 -27.781754 22.499102 0.000395 -0.267991 -7.491767 -14.433327 5.821068 -0.000457 0.016384 -0.175016 17.295858 8.048425 8.800898 18.807627 -0.061811 0.242648 0.904620 4.406006 -0.635449 0.000000 0.000000 0.000000 
-48.223766 38.991150 52.456837 -3.340410 -1.052900 -25.602699 4.219070 0.701223 -9.262490 12.399700 7.040630 0.147327 0.000000 0.000000 0.000000 -35.691700 -7.589180 9.988810 0.000000 0.000000 0.000000 0.000000 0.000000 0.000000 -4.404510 -23.515600 1.063180 83.712128 7.223611 2.988789 61.872162 -0.137973 -0.531797 -12.430364 -9.280467 -1.467938 -2.196803 8.088476 9.363434 -15.836849 8.200828 -17.027071 -4.667157 11.532217 -17.436045 0.000000 0.000000 0.000000 9.192525 9.822696 -5.878980 -14.800317 3.416048 -6.315852 -0.175781 0.000000 0.000000 8.244953 -1.502700 0.722675 -12.838020 -2.429856 5.230082 -0.175781 0.000000 0.000000 -0.156757 -5.465929 4.370303 -17.719269 -3.972915 -0.926374 -0.175781 0.000000 0.000000 7.752715 -4.393883 3.036627 4.441531 -3.901016 1.855662 0.921179 17.616501 2.317810 -85.330666 -30.075399 30.077530 -63.102348 -0.379179 -0.823008 11.860402 6.568869 0.693851 1.301079 -8.886789 9.164861 -30.905001 -8.414250 -17.094839 27.988997 -12.283599 -17.862673 0.000000 0.000000 0.000000 -21.136637 -10.005515 -5.939188 26.936884 -3.570157 -6.428788 -0.175781 0.000000 0.000000 -0.351563 0.000000 0.000000 3.108605 2.209314 1.967557 -0.175781 0.000000 0.000000 -0.736324 5.381598 4.224761 16.871576 3.912536 -1.093365 -0.175781 0.000000 0.000000 -8.641175 4.276957 2.914167 -5.330077 3.798435 1.717381 -22.405361 -12.685191 -27.386126 21.970247 0.066163 -0.604567 -5.220401 -14.130181 5.444574 -0.000457 0.016384 -0.175016 18.026821 10.516414 9.783815 22.323282 -0.043145 0.258945 7.891355 4.029687 6.270579 0.000000 0.000000 0.000000 
-48.333729 39.189026 52.560986 -2.994480 -3.686380 -26.174999 4.402780 3.505290 -8.509070 12.930800 7.026120 0.915003 0.000000 0.000000 0.000000 -38.526299 -8.984670 10.247200 0.000000 0.000000 0.000000 0.000000 0.000000 0.000000 -3.618890 -22.799000 1.453390 80.861214 8.444993 2.046349 61.343323 -0.141345 -0.695244 -14.525992 -9.688185 -1.242104 -2.196803 8.088476 9.363434 -15.836849 8.200828 -17.027071 -4.667157 11.532217 -17.436045 0.000000 0.000000 0.000000 9.192525 9.822696 -5.878980 -14.800317 3.416048 -6.315852 -0.175781 0.000000 0.000000 8.244953 -1.502700 0.722675 -12.838020 -2.429856 5.230082 -0.175781 0.000000 0.000000 -0.156757 -5.465929 4.370303 -17.719269 -3.972915 -0.926374 -0.175781 0.000000 0.000000 7.752715 -4.393883 3.036627 4.441531 -3.901016 1.855662 0.736199 17.433399 2.373590 -85.964279 -25.506428 28.294979 -61.696136 -0.375891 -0.798942 12.568621 6.744727 0.402578 1.301079 -8.886789 9.164861 -30.905001 -8.414250 -17.094839 27.988997 -12.283599 -17.862673 0.000000 0.000000 0.000000 -21.136637 -10.005515 -5.939188 26.936884 -3.570157 -6.428788 -0.175781 0.000000 0.000000 -0.351563 0.000000 0.000000 3.108605 2.209314 1.967557 -0.175781 0.000000 0.000000 -0.736324 5.381598 4.224761 16.871576 3.912536 -1.093365 -0.175781 0.000000 0.000000 -8.641175 4.276957 2.914167 -5.330077 3.798435 1.717381 -20.687538 -9.768423 -28.709639 20.038181 0.000445 -0.257684 -0.368159 -13.219926 3.873595 -0.000457 0.016384 -0.175016 14.507710 13.826702 9.102827 27.947929 -0.143383 0.256155 32.249596 5.207451 11.585012 0.000000 0.000000 0.000000 
